<?xml version="1.0" encoding="UTF-8"?>
<svg xmlns="http://www.w3.org/2000/svg" xmlns:xlink="http://www.w3.org/1999/xlink" width="256px" height="40px" viewBox="0 0 257 40" version="1.1">
<g id="surface1">
<path style=" stroke:none;fill-rule:nonzero;fill:rgb(100%,0%,20%);fill-opacity:1;" d="M 0.179688 0.0898438 L 256.726562 0.0898438 L 256.726562 40 L 0.179688 40 Z M 0.179688 0.0898438 "/>
<path style=" stroke:none;fill-rule:nonzero;fill:rgb(100%,100%,100%);fill-opacity:1;" d="M 100.085938 10.074219 C 98.183594 10.074219 96.140625 10.433594 94.582031 11.527344 C 93.042969 12.621094 92.128906 14.480469 92.128906 16.363281 C 92.128906 20.945312 96.402344 21.925781 100.019531 22.621094 C 100.890625 22.785156 102.371094 23.015625 102.371094 24.195312 C 102.371094 25.261719 100.859375 25.367188 100.109375 25.367188 C 98.40625 25.367188 97.117188 24.75 96.613281 23.035156 L 91.148438 24.027344 L 91.25 24.410156 L 91.375 24.777344 L 91.511719 25.140625 L 91.65625 25.480469 L 91.816406 25.808594 L 91.984375 26.117188 L 92.179688 26.421875 L 92.371094 26.707031 L 92.585938 26.980469 L 92.800781 27.242188 L 93.273438 27.714844 L 93.796875 28.152344 L 94.066406 28.34375 L 94.351562 28.527344 L 94.632812 28.695312 L 94.9375 28.855469 L 95.242188 29.003906 L 95.558594 29.140625 L 95.875 29.265625 L 96.207031 29.367188 L 96.542969 29.46875 L 96.882812 29.558594 L 97.222656 29.640625 L 97.585938 29.707031 L 97.933594 29.765625 L 98.296875 29.808594 L 98.671875 29.84375 L 99.40625 29.890625 L 99.777344 29.890625 C 103.761719 29.890625 108.320312 28.042969 108.320312 23.414062 C 108.320312 21.308594 107.34375 19.488281 105.46875 18.503906 C 103.796875 17.636719 101.863281 17.339844 100.039062 16.972656 C 99.316406 16.804688 97.925781 16.609375 97.925781 15.597656 C 97.925781 14.589844 99.03125 14.359375 99.816406 14.359375 C 101.292969 14.359375 102.359375 14.859375 102.914062 16.289062 L 107.761719 14.8125 C 106.589844 11.472656 103.382812 10.085938 100.054688 10.085938 Z M 142.796875 10.074219 C 140.902344 10.074219 138.851562 10.433594 137.296875 11.527344 C 135.761719 12.621094 134.839844 14.480469 134.839844 16.363281 C 134.839844 20.945312 139.113281 21.925781 142.734375 22.621094 C 143.597656 22.785156 145.074219 23.015625 145.074219 24.195312 C 145.074219 25.261719 143.570312 25.367188 142.8125 25.367188 C 141.109375 25.367188 139.832031 24.75 139.328125 23.035156 L 133.863281 24.027344 L 133.976562 24.410156 L 134.089844 24.777344 L 134.226562 25.140625 L 134.375 25.480469 L 134.53125 25.808594 L 134.703125 26.117188 L 134.894531 26.421875 L 135.085938 26.707031 L 135.300781 26.980469 L 135.515625 27.242188 L 135.992188 27.714844 L 136.511719 28.152344 L 136.785156 28.34375 L 137.066406 28.527344 L 137.347656 28.695312 L 137.652344 28.855469 L 137.957031 29.003906 L 138.277344 29.140625 L 138.59375 29.265625 L 138.921875 29.367188 L 139.261719 29.46875 L 139.597656 29.558594 L 139.949219 29.640625 L 140.300781 29.707031 L 140.652344 29.765625 L 141.015625 29.808594 L 141.386719 29.84375 L 142.121094 29.890625 L 142.503906 29.890625 C 146.453125 29.890625 151.046875 28.042969 151.046875 23.414062 C 151.046875 21.308594 150.066406 19.488281 148.195312 18.503906 C 146.523438 17.636719 144.589844 17.339844 142.765625 16.972656 C 142.042969 16.804688 140.636719 16.609375 140.636719 15.597656 C 140.636719 14.589844 141.757812 14.359375 142.539062 14.359375 C 144.019531 14.359375 145.082031 14.859375 145.636719 16.289062 L 150.488281 14.8125 C 149.3125 11.472656 146.105469 10.085938 142.777344 10.085938 Z M 233.652344 10.074219 C 231.753906 10.074219 229.707031 10.433594 228.152344 11.527344 C 226.617188 12.621094 225.695312 14.480469 225.695312 16.363281 C 225.695312 20.945312 229.964844 21.925781 233.589844 22.621094 C 234.457031 22.785156 235.9375 23.015625 235.9375 24.195312 C 235.9375 25.261719 234.433594 25.367188 233.679688 25.367188 C 231.976562 25.367188 230.683594 24.75 230.183594 23.035156 L 224.75 24.027344 L 224.851562 24.410156 L 224.964844 24.777344 L 225.101562 25.140625 L 225.25 25.480469 L 225.40625 25.808594 L 225.578125 26.117188 L 225.769531 26.421875 L 225.960938 26.707031 L 226.175781 26.980469 L 226.394531 27.242188 L 226.867188 27.714844 L 227.386719 28.152344 L 227.660156 28.34375 L 227.941406 28.527344 L 228.238281 28.695312 L 228.527344 28.855469 L 228.835938 29.003906 L 229.152344 29.140625 L 229.46875 29.265625 L 229.808594 29.367188 L 230.136719 29.46875 L 230.476562 29.558594 L 230.824219 29.640625 L 231.175781 29.707031 L 231.527344 29.765625 L 231.890625 29.808594 L 232.261719 29.84375 L 232.632812 29.867188 L 232.996094 29.890625 L 233.382812 29.890625 C 237.363281 29.890625 241.921875 28.042969 241.921875 23.414062 C 241.921875 21.308594 240.953125 19.488281 239.085938 18.503906 C 237.40625 17.636719 235.46875 17.339844 233.65625 16.972656 C 232.929688 16.804688 231.542969 16.609375 231.542969 15.597656 C 231.542969 14.589844 232.660156 14.359375 233.441406 14.359375 C 234.921875 14.359375 235.980469 14.859375 236.539062 16.289062 L 241.390625 14.8125 C 240.21875 11.472656 237.011719 10.085938 233.683594 10.085938 Z M 16.46875 10.359375 L 16.46875 29.59375 L 25.230469 29.59375 C 26.960938 29.59375 29.03125 29.566406 30.511719 28.503906 C 31.882812 27.523438 32.472656 25.671875 32.472656 24.027344 C 32.472656 21.726562 30.96875 20.027344 28.78125 19.664062 C 30.734375 19.160156 32.015625 17.449219 32.015625 15.410156 C 32.015625 13.839844 31.265625 12.269531 29.980469 11.339844 C 28.78125 10.46875 27.308594 10.359375 25.855469 10.359375 Z M 43.796875 10.359375 L 37.863281 29.59375 L 42.640625 29.59375 L 43.816406 25.8125 L 48.921875 25.8125 L 50.003906 29.59375 L 56.015625 29.59375 L 50.003906 10.359375 Z M 62.222656 10.359375 L 62.222656 29.59375 L 76.628906 29.59375 L 76.628906 24.972656 L 68.011719 24.972656 L 68.011719 21.859375 L 75 21.859375 L 75 17.570312 L 68.011719 17.570312 L 68.011719 14.765625 L 76.628906 14.765625 L 76.628906 10.328125 L 62.222656 10.328125 Z M 112.535156 10.359375 L 118.980469 21.449219 L 118.980469 29.59375 L 124.664062 29.59375 L 124.664062 21.449219 L 130.671875 10.359375 L 125.53125 10.359375 L 122.316406 16.683594 L 118.96875 10.359375 L 112.523438 10.359375 Z M 156.695312 10.359375 L 156.695312 14.972656 L 160.714844 14.972656 L 160.714844 29.59375 L 166.289062 29.59375 L 166.289062 14.972656 L 170.238281 14.972656 L 170.238281 10.359375 Z M 176.679688 10.359375 L 176.679688 29.59375 L 191.046875 29.59375 L 191.046875 24.972656 L 182.433594 24.972656 L 182.433594 21.859375 L 189.417969 21.859375 L 189.417969 17.570312 L 182.433594 17.570312 L 182.433594 14.765625 L 191.046875 14.765625 L 191.046875 10.328125 L 176.679688 10.328125 Z M 198.289062 10.359375 L 198.289062 29.59375 L 202.703125 29.59375 L 202.703125 15.847656 L 206.359375 29.59375 L 210.089844 29.59375 L 213.585938 15.847656 L 213.628906 29.59375 L 219.09375 29.59375 L 219.09375 10.359375 L 211.351562 10.359375 L 208.726562 20.574219 L 205.941406 10.359375 L 198.269531 10.359375 Z M 22.007812 14.464844 L 24.292969 14.464844 C 25.410156 14.464844 26.585938 14.671875 26.585938 16.101562 C 26.585938 16.546875 26.394531 17.027344 26.035156 17.363281 C 25.613281 17.753906 24.941406 17.726562 24.382812 17.726562 L 22.007812 17.726562 Z M 46.476562 16.011719 L 48.039062 21.609375 L 44.902344 21.609375 L 46.472656 16.011719 Z M 22.007812 21.828125 L 24.328125 21.828125 C 24.855469 21.828125 25.53125 21.839844 26.035156 22.089844 C 26.59375 22.371094 26.953125 22.957031 26.953125 23.601562 C 26.953125 24.132812 26.671875 24.636719 26.25 24.945312 C 25.777344 25.339844 25.140625 25.308594 24.550781 25.308594 L 22.007812 25.308594 Z M 22.007812 21.828125 "/>
</g>
</svg>
