<?xml version="1.0" standalone="no"?>
<!DOCTYPE svg PUBLIC "-//W3C//DTD SVG 20010904//EN"
 "http://www.w3.org/TR/2001/REC-SVG-20010904/DTD/svg10.dtd">
<svg version="1.0" xmlns="http://www.w3.org/2000/svg"
viewBox="0 0 900.000000 731.000000"
 preserveAspectRatio="xMidYMid meet">

<g transform="translate(0.000000,731.000000) scale(0.100000,-0.100000)"
fill="#000000" stroke="none">
<path d="M4395 7304 c-383 -41 -685 -140 -1030 -339 -297 -172 -395 -266 -477
-459 -20 -49 -41 -81 -53 -86 -32 -13 -103 -78 -134 -123 -16 -23 -41 -76 -57
-117 l-29 -75 0 -276 0 -275 -32 -61 c-51 -94 -66 -176 -60 -323 4 -100 10
-142 32 -210 76 -235 181 -356 369 -426 l73 -28 17 -77 c21 -98 47 -163 108
-264 39 -64 48 -89 48 -126 0 -25 -6 -53 -12 -61 -7 -9 -65 -46 -128 -81 -145
-80 -326 -193 -502 -312 -75 -51 -153 -98 -175 -105 -65 -21 -122 -59 -151
-102 -23 -36 -27 -51 -26 -113 1 -82 19 -142 81 -275 200 -426 288 -848 313
-1491 11 -292 11 -294 175 -359 44 -17 169 -73 280 -124 282 -131 396 -165
551 -166 l81 0 32 -102 c17 -57 73 -229 124 -383 l92 -279 70 -18 c154 -40
300 -59 495 -65 193 -6 534 9 634 28 73 14 163 58 197 97 31 35 31 36 28 135
l-4 99 70 18 c108 28 162 55 185 92 34 56 34 101 1 263 -41 201 -52 285 -45
339 6 40 10 47 40 56 40 14 84 63 84 95 0 17 9 27 39 38 77 31 161 47 247 47
l89 -1 23 -38 c23 -36 28 -38 105 -52 45 -7 141 -14 212 -13 224 1 316 49 386
199 51 112 64 171 63 305 -1 130 -20 220 -85 403 -49 135 -74 181 -132 234
-65 60 -125 77 -256 71 -115 -5 -186 -25 -392 -113 -57 -24 -105 -42 -107 -40
-2 1 16 51 39 111 55 143 139 393 250 744 125 393 129 458 33 570 -25 29 -116
110 -203 181 -165 134 -235 203 -245 244 -5 18 11 56 59 149 132 251 200 508
251 951 23 192 26 682 6 795 -33 182 -96 390 -153 504 -76 150 -220 323 -394
472 -233 201 -543 310 -903 318 -86 2 -175 2 -197 0z m365 -174 c25 -6 68 -16
95 -22 145 -31 352 -115 472 -191 59 -37 161 -135 230 -220 32 -40 60 -74 63
-77 3 -3 24 -30 46 -60 l41 -55 -81 0 c-91 0 -137 -20 -177 -76 -19 -28 -39
-109 -26 -109 3 0 22 9 41 21 142 84 391 -42 446 -227 28 -95 40 -184 51 -407
17 -326 1 -553 -56 -802 -9 -38 -20 -86 -24 -105 -23 -100 -114 -329 -169
-425 -68 -118 -204 -314 -252 -363 -107 -108 -348 -227 -555 -274 -81 -18
-265 -16 -335 4 -97 27 -267 106 -310 143 -8 7 -20 14 -27 16 -16 5 -108 84
-168 144 -88 89 -131 139 -201 235 -78 108 -77 106 -104 140 l-20 25 6 -40
c12 -71 35 -128 81 -198 25 -37 50 -73 56 -80 7 -7 44 -48 82 -92 126 -142
222 -227 306 -272 l35 -19 -96 4 c-83 4 -102 1 -138 -17 -23 -12 -46 -30 -52
-41 -11 -21 -1 -21 -195 1 -230 26 -359 93 -443 229 -103 167 -196 406 -223
571 -13 75 -7 92 52 156 20 22 40 49 43 60 9 29 -3 73 -20 73 -19 0 -84 -32
-84 -42 0 -4 -5 -8 -11 -8 -6 0 -25 -11 -43 -25 -45 -34 -118 -34 -191 0 -113
54 -222 221 -251 385 -16 93 -9 158 25 234 47 106 165 186 276 186 81 0 124
-22 184 -95 17 -21 71 -172 71 -199 0 -17 6 -18 77 -12 74 7 122 24 151 53 18
18 13 60 -24 208 -43 172 -43 257 2 471 44 217 54 361 29 444 -26 83 -23 101
28 176 60 89 142 175 242 252 103 80 92 72 155 112 30 19 57 37 60 40 27 28
299 156 360 168 30 7 64 14 75 16 37 9 349 -2 395 -14z m-952 -136 c2 -16 -6
-25 -35 -39 -21 -10 -47 -25 -58 -34 -11 -10 -49 -30 -85 -45 -172 -74 -328
-190 -447 -330 -26 -30 -95 -62 -175 -80 l-27 -6 21 37 c32 56 94 131 152 186
109 101 326 231 491 293 11 4 40 15 65 24 60 23 94 21 98 -6z m-469 -610 c7
-19 11 -37 9 -38 -1 -2 -25 -8 -53 -15 -214 -54 -318 -114 -406 -231 -87 -117
-129 -323 -93 -464 4 -18 1 -25 -14 -28 -17 -5 -20 1 -26 46 -10 83 -7 274 5
345 16 91 51 159 112 219 94 93 196 149 332 183 107 27 119 25 134 -17z m312
-2748 c19 -7 79 -19 134 -25 55 -7 119 -14 143 -17 48 -6 49 -11 30 -93 -14
-60 -21 -62 -119 -30 -152 49 -239 105 -239 154 0 29 5 30 51 11z m1413 -57
l-89 -71 -93 4 c-79 5 -102 10 -157 38 -36 18 -71 40 -77 48 -11 13 -8 13 22
6 83 -21 270 -4 390 36 14 5 40 9 59 9 33 1 31 -1 -55 -70z m3 -451 c15 -7 30
-15 33 -19 15 -18 92 -59 124 -64 42 -8 40 13 26 -245 -11 -205 -34 -395 -56
-463 l-16 -48 -33 68 c-39 79 -64 134 -135 298 -58 133 -138 281 -182 335 -34
42 -34 49 -5 84 18 21 29 25 52 21 19 -3 50 4 85 19 66 29 71 30 107 14z m471
-102 c26 -13 62 -40 80 -60 31 -35 32 -39 20 -66 -7 -17 -16 -30 -19 -30 -4 0
-10 -11 -13 -25 -4 -14 -11 -25 -16 -25 -6 0 -10 -4 -10 -9 0 -9 -104 -192
-155 -271 -107 -169 -193 -291 -182 -259 3 8 16 69 30 135 26 122 40 236 57
473 5 74 11 135 12 136 44 33 132 34 196 1z m-798 -106 c12 -10 87 -137 127
-215 46 -90 163 -352 163 -365 0 -5 8 -22 17 -39 10 -16 15 -33 11 -36 -6 -6
-168 45 -206 64 -24 13 -106 49 -161 71 -36 14 -340 166 -348 173 -1 1 6 26
16 54 16 49 83 138 141 190 14 12 63 48 110 80 47 32 87 62 89 66 2 5 10 -2
19 -15 9 -13 19 -25 22 -28z m1745 -657 c22 -15 48 -36 59 -47 39 -45 82 -164
121 -341 9 -38 21 -90 27 -115 26 -99 9 -235 -38 -311 -32 -52 -100 -106 -153
-123 -88 -28 -351 -33 -351 -6 0 12 79 35 185 55 118 23 128 29 70 45 -35 10
-98 11 -265 6 l-218 -7 -6 38 c-3 21 -8 70 -11 108 -15 184 -46 388 -68 452
-9 29 -8 34 14 52 13 11 47 31 74 44 43 22 83 37 230 89 47 17 96 38 145 63
65 33 134 33 185 -2z m-1520 -242 l110 -16 12 -60 c6 -33 17 -170 23 -305 6
-135 15 -292 21 -350 5 -58 13 -197 19 -310 24 -508 31 -610 45 -679 9 -41 14
-74 13 -76 -9 -6 -183 -46 -238 -55 -114 -18 -386 -24 -530 -11 -130 12 -326
46 -420 74 -43 12 -45 15 -63 72 -134 424 -226 855 -291 1360 -14 105 -28 209
-32 231 -3 23 -2 44 3 47 7 5 161 30 343 57 36 5 121 15 190 21 69 6 127 13
129 15 2 2 128 4 280 3 200 -1 306 -6 386 -18z m775 -63 c46 -120 66 -240 72
-436 l3 -124 -50 -19 c-27 -10 -66 -19 -87 -19 l-36 0 -7 78 c-3 42 -10 100
-15 127 -5 28 -16 100 -25 160 -9 61 -20 137 -25 170 -5 33 -12 79 -15 103
l-5 42 79 0 80 0 31 -82z m-331 -952 c6 -46 18 -107 25 -137 22 -84 38 -208
34 -269 l-3 -55 -55 -18 c-30 -9 -78 -20 -106 -23 l-50 -6 -12 168 c-7 93 -12
219 -12 281 l0 112 43 11 c23 6 47 13 52 15 6 2 24 4 41 4 l31 1 12 -84z"/>
<path d="M4235 6444 c-110 -27 -232 -121 -295 -230 -51 -88 -59 -191 -16 -207
11 -4 26 14 55 66 55 101 120 166 201 202 35 16 66 20 143 20 93 0 98 1 104
23 15 61 -39 117 -122 126 -28 2 -59 2 -70 0z"/>
<path d="M5719 5990 c0 -3 -2 -13 -4 -24 -4 -23 20 -152 36 -192 6 -16 16 -40
21 -54 6 -14 14 -32 19 -42 14 -27 -14 -39 -113 -48 -51 -5 -105 -13 -120 -17
-26 -8 -26 -9 -13 -48 8 -21 24 -47 37 -56 65 -50 242 -5 315 80 l22 25 -26
46 c-35 59 -103 193 -128 250 -19 45 -44 89 -46 80z"/>
<path d="M4550 5935 c1 -77 16 -129 75 -246 48 -96 52 -109 38 -121 -20 -16
-185 -15 -253 1 -52 12 -70 -1 -70 -51 0 -67 108 -113 245 -106 112 6 175 43
200 115 17 50 1 91 -64 158 -44 45 -97 134 -115 193 -4 12 -18 42 -32 65 l-24
42 0 -50z"/>
<path d="M5130 5835 c0 -63 25 -154 64 -240 33 -70 131 -218 190 -286 17 -20
40 -47 50 -60 11 -13 41 -49 68 -80 77 -91 88 -135 50 -206 -9 -15 -120 -71
-287 -143 -49 -21 -138 -40 -188 -40 -83 0 -105 23 -137 139 -10 36 -14 41
-24 30 -40 -42 -36 -157 8 -221 21 -32 24 -33 98 -36 112 -4 274 26 357 66 25
12 50 22 55 23 6 0 61 31 121 68 102 62 111 70 120 106 6 22 14 46 18 53 5 7
11 37 14 66 l6 53 -74 75 c-215 217 -391 460 -443 613 -17 47 -26 61 -43 63
-21 3 -23 -1 -23 -43z"/>
<path d="M2895 5381 c-11 -5 -30 -11 -41 -15 -23 -8 -74 -92 -74 -121 0 -13 8
-10 36 15 36 31 71 37 67 10 -1 -8 -7 -37 -13 -65 -15 -68 -5 -180 23 -235
l22 -45 6 118 c7 126 25 181 63 193 29 9 67 -26 104 -97 48 -93 58 -101 67
-51 17 102 -44 225 -135 272 -44 22 -98 31 -125 21z"/>
<path d="M5625 4713 c-157 -80 -200 -96 -285 -105 -24 -3 -25 -5 -28 -90 l-3
-88 31 0 c37 0 169 43 208 67 49 31 148 137 190 205 23 37 42 70 42 73 0 13
-34 -1 -155 -62z"/>
<path d="M4555 4653 c73 -134 278 -218 563 -230 l132 -6 0 74 c0 41 -4 80 -9
88 -7 10 -27 14 -73 12 -92 -3 -368 17 -424 30 -90 21 -159 41 -168 50 -6 5
-16 9 -23 9 -11 0 -10 -6 2 -27z"/>
<path d="M4450 4510 c-18 -12 -10 -28 65 -119 28 -34 73 -90 101 -124 56 -69
119 -107 214 -127 76 -16 274 -8 370 15 63 15 81 24 113 57 20 21 37 43 37 47
0 5 -111 11 -247 14 -265 6 -321 15 -430 69 -62 31 -134 102 -153 153 -10 26
-42 33 -70 15z"/>
<path d="M5039 2959 c-22 -22 -18 -55 10 -76 23 -18 45 -16 64 5 50 55 -21
124 -74 71z"/>
<path d="M5097 2716 c-27 -21 -19 -67 15 -85 24 -14 28 -14 47 3 54 49 -4 125
-62 82z"/>
<path d="M6220 2071 c-36 -9 -87 -28 -113 -41 -50 -25 -134 -96 -125 -105 14
-14 113 22 202 73 55 31 118 65 140 74 l41 17 -40 0 c-22 -1 -69 -8 -105 -18z"/>
<path d="M6143 1881 c-34 -9 -83 -37 -83 -48 0 -8 282 5 335 16 l40 7 -40 12
c-52 16 -211 24 -252 13z"/>
<path d="M6135 1696 c-101 -25 -95 -32 36 -39 173 -10 320 -8 292 3 -80 32
-263 53 -328 36z"/>
</g>
</svg>
